<svg width="100" height="100" fill="none" xmlns="http://www.w3.org/2000/svg"><path d="M66.13 38.71a4.845 4.845 0 0 0 4.838-4.839V19.495l16.129 1.344v8.49a4.783 4.783 0 0 0-1.613-.297 4.845 4.845 0 0 0-4.839 4.839 4.845 4.845 0 0 0 4.84 4.839 4.845 4.845 0 0 0 4.838-4.839V11.419l-22.58-1.882V29.33a4.782 4.782 0 0 0-1.614-.297 4.845 4.845 0 0 0-4.839 4.839 4.845 4.845 0 0 0 4.84 4.839Zm19.354-3.226a1.616 1.616 0 0 1-1.613-1.613c0-.889.724-1.613 1.613-1.613s1.613.724 1.613 1.613-.724 1.613-1.613 1.613Zm1.613-21.097v3.215l-16.13-1.344v-3.214l16.13 1.343ZM66.129 32.258c.889 0 1.613.724 1.613 1.613s-.724 1.613-1.613 1.613a1.616 1.616 0 0 1-1.613-1.613c0-.889.724-1.613 1.613-1.613Z" fill="#f1b8d2"/><path d="M90.323 43.502C96.186 39.082 100 32.084 100 24.193 100 10.854 89.147 0 75.806 0c-13.34 0-24.193 10.853-24.193 24.194 0 .545.047 1.077.082 1.613H11.29c-4.446 0-8.064 3.617-8.064 8.064v50H0v8.065C0 96.382 3.618 100 8.065 100h77.419c4.447 0 8.064-3.618 8.064-8.064V83.87h-3.225v-40.37ZM75.806 3.226c11.562 0 20.968 9.406 20.968 20.968 0 11.56-9.406 20.967-20.968 20.967-11.56 0-20.967-9.406-20.967-20.968 0-11.56 9.406-20.967 20.967-20.967Zm0 45.161c1.657 0 3.275-.17 4.84-.487v29.52H12.902V35.483h41.523c4.063 7.664 12.117 12.903 21.38 12.903ZM6.452 33.871a4.845 4.845 0 0 1 4.838-4.839H52.1c.226 1.108.552 2.178.924 3.226h-40.12a3.229 3.229 0 0 0-3.227 3.226v41.935a3.23 3.23 0 0 0 3.226 3.226h67.742a3.23 3.23 0 0 0 3.226-3.226V46.976a24.026 24.026 0 0 0 3.226-1.4V83.87H6.452v-50Zm49.703 53.226c-.668 1.872-2.442 3.226-4.542 3.226h-9.678c-2.1 0-3.874-1.354-4.541-3.226h18.76Zm34.168 4.839a4.845 4.845 0 0 1-4.84 4.838H8.066a4.845 4.845 0 0 1-4.84-4.838v-4.84h30.809c.75 3.677 4.006 6.452 7.901 6.452h9.678c3.894 0 7.151-2.775 7.901-6.451h30.809v4.839Z" fill="#f1b8d2"/><path d="M33.87 74.194c9.783 0 17.743-7.96 17.743-17.742 0-9.783-7.96-17.742-17.742-17.742s-17.742 7.96-17.742 17.742 7.96 17.742 17.742 17.742Zm0-32.259c8.004 0 14.517 6.513 14.517 14.517 0 8.003-6.513 14.516-14.516 14.516s-14.516-6.513-14.516-14.516c0-8.004 6.513-14.517 14.516-14.517Z" fill="#f1b8d2"/><path d="M25.807 47.39v18.123l18.122-9.061-18.122-9.062Zm3.225 5.22 7.684 3.842-7.684 3.842V52.61ZM56.451 74.194h3.226v-3.226H77.42v-3.226H59.677v-3.226h-3.226v3.226h-3.225v3.226h3.225v3.225ZM67.742 64.516h3.225V61.29h6.452v-3.225h-6.451v-3.226h-3.226v3.226H53.226v3.225h14.516v3.226Z" fill="#fff"/></svg>