<svg width="100" height="100" viewBox="0 0 100 100" fill="none" xmlns="http://www.w3.org/2000/svg">
<path d="M66.1292 38.7097C68.797 38.7097 70.9679 36.5388 70.9679 33.871V19.4952L87.097 20.8388V29.3291C86.5905 29.1484 86.0518 29.0323 85.4841 29.0323C82.8163 29.0323 80.6454 31.2033 80.6454 33.871C80.6454 36.5388 82.8163 38.7097 85.4841 38.7097C88.1518 38.7097 90.3228 36.5388 90.3228 33.871V11.4194L67.7421 9.53714V29.3291C67.2357 29.1484 66.697 29.0323 66.1292 29.0323C63.4615 29.0323 61.2905 31.2033 61.2905 33.871C61.2905 36.5388 63.4615 38.7097 66.1292 38.7097ZM85.4841 35.4839C84.5954 35.4839 83.8712 34.7597 83.8712 33.871C83.8712 32.9823 84.5954 32.2581 85.4841 32.2581C86.3728 32.2581 87.097 32.9823 87.097 33.871C87.097 34.7597 86.3728 35.4839 85.4841 35.4839ZM87.097 14.3871V17.6017L70.9679 16.2581V13.0436L87.097 14.3871ZM66.1292 32.2581C67.0179 32.2581 67.7421 32.9823 67.7421 33.871C67.7421 34.7597 67.0179 35.4839 66.1292 35.4839C65.2405 35.4839 64.5163 34.7597 64.5163 33.871C64.5163 32.9823 65.2405 32.2581 66.1292 32.2581Z" fill="#f1b8d2"/>
<path d="M90.3226 43.5016C96.1855 39.0823 100 32.0839 100 24.1935C100 10.8532 89.1468 0 75.8064 0C62.4661 0 51.6129 10.8532 51.6129 24.1935C51.6129 24.7387 51.6597 25.271 51.6952 25.8065H11.2903C6.84355 25.8065 3.22581 29.4242 3.22581 33.871V83.871H0V91.9355C0 96.3823 3.61774 100 8.06452 100H85.4839C89.9306 100 93.5484 96.3823 93.5484 91.9355V83.871H90.3226V43.5016ZM75.8064 3.22581C87.3677 3.22581 96.7742 12.6323 96.7742 24.1935C96.7742 35.7548 87.3677 45.1613 75.8064 45.1613C64.2452 45.1613 54.8387 35.7548 54.8387 24.1935C54.8387 12.6323 64.2452 3.22581 75.8064 3.22581ZM75.8064 48.3871C77.4629 48.3871 79.0806 48.2177 80.6452 47.9V77.4194H12.9032V35.4839H54.4258C58.4887 43.1484 66.5435 48.3871 75.8064 48.3871ZM6.45161 33.871C6.45161 31.2032 8.62258 29.0323 11.2903 29.0323H52.1C52.3258 30.1403 52.6516 31.2097 53.0242 32.2581H12.9032C11.1242 32.2581 9.67742 33.7048 9.67742 35.4839V77.4194C9.67742 79.1984 11.1242 80.6452 12.9032 80.6452H80.6452C82.4242 80.6452 83.871 79.1984 83.871 77.4194V46.9758C84.9839 46.5806 86.0661 46.1226 87.0968 45.5758V83.871H6.45161V33.871ZM56.1548 87.0968C55.4871 88.9694 53.7129 90.3226 51.6129 90.3226H41.9355C39.8355 90.3226 38.0613 88.9694 37.3935 87.0968H56.1548ZM90.3226 91.9355C90.3226 94.6032 88.1516 96.7742 85.4839 96.7742H8.06452C5.39677 96.7742 3.22581 94.6032 3.22581 91.9355V87.0968H34.0339C34.7839 90.7726 38.0403 93.5484 41.9355 93.5484H51.6129C55.5065 93.5484 58.7645 90.7726 59.5145 87.0968H90.3226V91.9355Z" fill="#f1b8d2"/>
<path d="M33.8708 74.1936C43.6531 74.1936 51.6128 66.2339 51.6128 56.4516C51.6128 46.6694 43.6531 38.7097 33.8708 38.7097C24.0886 38.7097 16.1289 46.6694 16.1289 56.4516C16.1289 66.2339 24.0886 74.1936 33.8708 74.1936ZM33.8708 41.9355C41.8741 41.9355 48.387 48.4484 48.387 56.4516C48.387 64.4548 41.8741 70.9678 33.8708 70.9678C25.8676 70.9678 19.3547 64.4548 19.3547 56.4516C19.3547 48.4484 25.8676 41.9355 33.8708 41.9355Z" fill="#f1b8d2"/>
<path d="M25.8066 47.3904V65.5129L43.9292 56.4516L25.8066 47.3904ZM29.0324 52.6097L36.7163 56.4516L29.0324 60.2936V52.6097Z" fill="white"/>
<path d="M56.4514 74.1935H59.6772V70.9677H77.4191V67.7419H59.6772V64.5161H56.4514V67.7419H53.2256V70.9677H56.4514V74.1935Z" fill="white"/>
<path d="M67.7417 64.5161H70.9675V61.2903H77.4191V58.0645H70.9675V54.8387H67.7417V58.0645H53.2256V61.2903H67.7417V64.5161Z" fill="white"/>
</svg>
